<svg width="1200" height="358" viewBox="0 0 1200 358" fill="none" xmlns="http://www.w3.org/2000/svg">
<path fill-rule="evenodd" clip-rule="evenodd" d="M627.637 250.55L711.318 8.15141C712.137 5.77074 713.679 3.70541 715.729 2.24397C717.779 0.782529 720.234 -0.00199183 722.752 3.79785e-06H778.137C780.657 -1.42942e-05 783.114 0.784963 785.167 2.24581C787.22 3.70665 788.768 5.77079 789.594 8.15141L873.162 250.55C873.793 252.375 873.978 254.324 873.701 256.234C873.425 258.145 872.696 259.962 871.575 261.533C870.454 263.105 868.973 264.385 867.256 265.268C865.539 266.15 863.636 266.61 861.706 266.607H818.224L804.422 224.175H696.31L682.509 266.607H639.072C637.143 266.606 635.243 266.144 633.529 265.26C631.815 264.376 630.337 263.095 629.218 261.524C628.099 259.953 627.372 258.138 627.097 256.229C626.822 254.32 627.007 252.373 627.637 250.55ZM788.79 175.892L751.494 60.9012H749.417L711.943 175.892H788.79Z" fill="black"/>
<path d="M1054.32 180.157L980.492 2.06814e-05H923.186C921.597 2.06814e-05 920.023 0.313094 918.554 0.921392C917.086 1.52969 915.751 2.42133 914.627 3.54531C913.503 4.6693 912.612 6.00364 912.003 7.4722C911.395 8.94076 911.082 10.5148 911.082 12.1043V254.503C911.082 256.092 911.395 257.666 912.003 259.135C912.612 260.604 913.503 261.938 914.627 263.062C915.751 264.186 917.086 265.077 918.554 265.686C920.023 266.294 921.597 266.607 923.186 266.607H965.618V92.4125H967.852L1037.37 266.607H1073.57L1143.07 93.0825H1145.31V266.607H1187.83C1189.42 266.607 1190.99 266.294 1192.46 265.686C1193.93 265.077 1195.26 264.186 1196.39 263.062C1197.51 261.938 1198.4 260.604 1199.01 259.135C1199.62 257.666 1199.93 256.092 1199.93 254.503V12.1043C1199.94 10.514 1199.62 8.93861 1199.02 7.46873C1198.41 5.99884 1197.52 4.66335 1196.39 3.53877C1195.27 2.4142 1193.93 1.52265 1192.46 0.915395C1190.99 0.308139 1189.42 -0.00292176 1187.83 2.06814e-05H1130.41L1056.56 180.157H1054.32Z" fill="black"/>
<path fill-rule="evenodd" clip-rule="evenodd" d="M0 102.998C0 99.7346 1.29649 96.6047 3.60418 94.297C5.91187 91.9893 9.04174 90.6929 12.3053 90.6929H105.187C165.708 90.6929 200.726 128.055 200.726 181.051C200.726 234.046 164.994 270.873 103.757 270.873H56.3676V357.322H12.3053C9.04174 357.322 5.91187 356.026 3.60418 353.718C1.29649 351.41 0 348.281 0 345.017V102.998ZM94.6458 225.694C126.939 225.694 142.706 207.47 142.706 181.028C142.706 154.587 126.939 136.743 94.4001 136.743H56.4346V225.671L94.6458 225.694Z" fill="black"/>
<path fill-rule="evenodd" clip-rule="evenodd" d="M197.979 340.997L281.525 98.9783C282.355 96.5583 283.92 94.4584 286.003 92.9727C288.085 91.487 290.58 90.6898 293.138 90.6929H348.255C350.816 90.6914 353.313 91.4918 355.396 92.9818C357.479 94.4717 359.043 96.5765 359.868 99.0006L443.303 340.997C443.943 342.849 444.132 344.828 443.853 346.768C443.574 348.708 442.836 350.553 441.7 352.15C440.564 353.747 439.063 355.049 437.322 355.949C435.581 356.849 433.65 357.32 431.69 357.322H388.521L374.719 314.89H266.607L252.828 357.322H209.614C207.652 357.323 205.719 356.855 203.975 355.957C202.231 355.059 200.727 353.756 199.588 352.159C198.45 350.561 197.71 348.715 197.43 346.773C197.15 344.832 197.338 342.851 197.979 340.997ZM359.042 266.607L321.746 151.616H319.669L282.24 266.607H359.042Z" fill="black"/>
<path d="M390.241 16.1912L473.631 258.009C474.494 260.521 476.14 262.689 478.327 264.197C480.513 265.704 483.126 266.471 485.78 266.384C561.711 262.721 609.615 213.165 609.615 133.036C609.615 49.9805 560.349 0 479.951 0H401.787C399.842 0.000811421 397.925 0.466148 396.196 1.35728C394.467 2.24842 392.975 3.53962 391.846 5.1234C390.717 6.70717 389.982 8.53775 389.703 10.4628C389.423 12.3879 389.608 14.3518 390.241 16.1912Z" fill="black"/>
</svg>
